<mxfile host="app.diagrams.net" modified="2023-05-10T18:30:40.950Z" agent="Mozilla/5.0 (Windows NT 10.0; Win64; x64) AppleWebKit/537.36 (KHTML, like Gecko) Chrome/112.0.0.0 Safari/537.36" etag="-HKk71Uh2t72XNMMPoSK" version="21.2.9" type="device">
  <diagram name="Page-1" id="b5b7bab2-c9e2-2cf4-8b2a-24fd1a2a6d21">
    <mxGraphModel dx="1434" dy="788" grid="1" gridSize="10" guides="1" tooltips="1" connect="1" arrows="1" fold="1" page="1" pageScale="1" pageWidth="827" pageHeight="1169" background="#ffffff" math="0" shadow="0">
      <root>
        <mxCell id="0" />
        <mxCell id="1" parent="0" />
        <mxCell id="6e0c8c40b5770093-30" value="" style="group" parent="1" vertex="1" connectable="0">
          <mxGeometry x="1045.5" y="294.5" width="230" height="480" as="geometry" />
        </mxCell>
        <mxCell id="Mk2Gps-Qhd8d-5zVS3Zk-4" value="" style="group" parent="1" connectable="0" vertex="1">
          <mxGeometry x="570" y="440" width="191" height="380" as="geometry" />
        </mxCell>
        <mxCell id="fj0S0OUntvVnCHJul-vR-41" value="Passenger&amp;nbsp;" style="rounded=0;whiteSpace=wrap;html=1;fillStyle=solid;fillColor=#cdeb8b;strokeColor=#36393d;fontStyle=1" parent="Mk2Gps-Qhd8d-5zVS3Zk-4" vertex="1">
          <mxGeometry width="190" height="50" as="geometry" />
        </mxCell>
        <mxCell id="Mk2Gps-Qhd8d-5zVS3Zk-23" style="edgeStyle=orthogonalEdgeStyle;rounded=0;orthogonalLoop=1;jettySize=auto;html=1;exitX=0.5;exitY=1;exitDx=0;exitDy=0;" parent="Mk2Gps-Qhd8d-5zVS3Zk-4" source="fj0S0OUntvVnCHJul-vR-44" edge="1">
          <mxGeometry relative="1" as="geometry">
            <mxPoint x="610" y="480" as="targetPoint" />
          </mxGeometry>
        </mxCell>
        <mxCell id="fj0S0OUntvVnCHJul-vR-44" value="- bseats: const int&amp;nbsp;&lt;div&gt;&amp;nbsp; &amp;nbsp;-eseats: const int&lt;/div&gt;&lt;div&gt;&lt;br&gt;&lt;/div&gt;&lt;div&gt;&lt;div&gt;#firstname:string&lt;/div&gt;&lt;div&gt;#lastname: string&lt;/div&gt;&lt;div&gt;# phone:string&lt;/div&gt;&lt;div&gt;&amp;nbsp;#mealtype:string&lt;/div&gt;&lt;div&gt;#passport:string&lt;/div&gt;&lt;div&gt;&amp;nbsp;#Address:string&lt;/div&gt;&lt;div&gt;&amp;nbsp; &amp;nbsp;#datedep:int&amp;nbsp;&lt;/div&gt;&lt;div&gt;#payment:int&lt;/div&gt;&lt;div&gt;&amp;nbsp; &amp;nbsp; #origin[30]:char&lt;/div&gt;&lt;div&gt;&amp;nbsp; &amp;nbsp; #destination[30]:char&lt;/div&gt;&lt;/div&gt;&lt;div&gt;&lt;br&gt;&lt;/div&gt;+&amp;nbsp;passenger()&lt;br&gt;&lt;div&gt;ldest() = 0&lt;/div&gt;&lt;div&gt;&amp;nbsp; &amp;nbsp; +idest()&lt;/div&gt;&lt;div&gt;&amp;nbsp; &amp;nbsp; &amp;nbsp;seats()&lt;/div&gt;&lt;div&gt;&amp;nbsp; &amp;nbsp;Meals()&lt;/div&gt;&lt;div&gt;&amp;nbsp; &amp;nbsp;Registration()&lt;/div&gt;&lt;div&gt;&amp;nbsp; &amp;nbsp; &amp;nbsp;display()&amp;nbsp;&lt;/div&gt;&amp;nbsp; &amp;nbsp;drive() &amp;nbsp;" style="rounded=0;whiteSpace=wrap;html=1;fillColor=#d5e8d4;strokeColor=#82b366;gradientColor=#97d077;" parent="Mk2Gps-Qhd8d-5zVS3Zk-4" vertex="1">
          <mxGeometry x="1" y="51" width="190" height="329" as="geometry" />
        </mxCell>
        <mxCell id="Mk2Gps-Qhd8d-5zVS3Zk-2" value="" style="endArrow=none;html=1;rounded=0;entryX=1;entryY=0.12;entryDx=0;entryDy=0;entryPerimeter=0;" parent="Mk2Gps-Qhd8d-5zVS3Zk-4" target="fj0S0OUntvVnCHJul-vR-44" edge="1">
          <mxGeometry width="50" height="50" relative="1" as="geometry">
            <mxPoint y="90" as="sourcePoint" />
            <mxPoint x="160" y="100" as="targetPoint" />
          </mxGeometry>
        </mxCell>
        <mxCell id="Mk2Gps-Qhd8d-5zVS3Zk-3" value="" style="endArrow=none;html=1;rounded=0;exitX=-0.006;exitY=0.624;exitDx=0;exitDy=0;exitPerimeter=0;entryX=1.013;entryY=0.624;entryDx=0;entryDy=0;entryPerimeter=0;" parent="Mk2Gps-Qhd8d-5zVS3Zk-4" source="fj0S0OUntvVnCHJul-vR-44" target="fj0S0OUntvVnCHJul-vR-44" edge="1">
          <mxGeometry width="50" height="50" relative="1" as="geometry">
            <mxPoint x="110" y="150" as="sourcePoint" />
            <mxPoint x="180" y="256" as="targetPoint" />
          </mxGeometry>
        </mxCell>
        <mxCell id="Mk2Gps-Qhd8d-5zVS3Zk-6" value="" style="group" parent="1" connectable="0" vertex="1">
          <mxGeometry x="880" y="475" width="190" height="350" as="geometry" />
        </mxCell>
        <mxCell id="Mk2Gps-Qhd8d-5zVS3Zk-12" value="" style="group" parent="Mk2Gps-Qhd8d-5zVS3Zk-6" connectable="0" vertex="1">
          <mxGeometry width="190" height="350" as="geometry" />
        </mxCell>
        <mxCell id="Mk2Gps-Qhd8d-5zVS3Zk-14" value="" style="group" parent="Mk2Gps-Qhd8d-5zVS3Zk-12" connectable="0" vertex="1">
          <mxGeometry width="190" height="350" as="geometry" />
        </mxCell>
        <mxCell id="fj0S0OUntvVnCHJul-vR-19" value="&lt;div&gt;&amp;nbsp;- des,loc: string&lt;/div&gt;&lt;div&gt;&lt;span style=&quot;background-color: initial;&quot;&gt;&amp;nbsp; &amp;nbsp;-x:int&lt;/span&gt;&lt;/div&gt;&lt;div&gt;&lt;span style=&quot;background-color: initial;&quot;&gt;&lt;br&gt;&lt;/span&gt;&lt;/div&gt;&lt;div&gt;&lt;span style=&quot;background-color: initial;&quot;&gt;&amp;nbsp;&lt;/span&gt;&lt;/div&gt;&lt;br&gt;&lt;br&gt;+schedule()&lt;br&gt;+LocalSchedule()&lt;br&gt;+ForeignSchedule()" style="rounded=0;whiteSpace=wrap;html=1;fillColor=#d5e8d4;strokeColor=#82b366;gradientColor=#97d077;" parent="Mk2Gps-Qhd8d-5zVS3Zk-14" vertex="1">
          <mxGeometry y="40" width="190" height="310" as="geometry" />
        </mxCell>
        <mxCell id="fj0S0OUntvVnCHJul-vR-24" value="Flight Schedule" style="rounded=0;whiteSpace=wrap;html=1;fillStyle=solid;fillColor=#cdeb8b;strokeColor=#36393d;fontStyle=1" parent="Mk2Gps-Qhd8d-5zVS3Zk-14" vertex="1">
          <mxGeometry width="190" height="40" as="geometry" />
        </mxCell>
        <mxCell id="Mk2Gps-Qhd8d-5zVS3Zk-5" value="" style="endArrow=none;html=1;rounded=0;entryX=1;entryY=0.5;entryDx=0;entryDy=0;exitX=0;exitY=0.5;exitDx=0;exitDy=0;" parent="Mk2Gps-Qhd8d-5zVS3Zk-14" source="fj0S0OUntvVnCHJul-vR-19" target="fj0S0OUntvVnCHJul-vR-19" edge="1">
          <mxGeometry width="50" height="50" relative="1" as="geometry">
            <mxPoint x="70" y="260" as="sourcePoint" />
            <mxPoint x="120" y="210" as="targetPoint" />
          </mxGeometry>
        </mxCell>
        <mxCell id="Mk2Gps-Qhd8d-5zVS3Zk-7" value="" style="group" parent="1" connectable="0" vertex="1">
          <mxGeometry x="1130" y="600" width="190" height="120" as="geometry" />
        </mxCell>
        <mxCell id="Mk2Gps-Qhd8d-5zVS3Zk-13" value="" style="group" parent="Mk2Gps-Qhd8d-5zVS3Zk-7" connectable="0" vertex="1">
          <mxGeometry width="190" height="120" as="geometry" />
        </mxCell>
        <mxCell id="fj0S0OUntvVnCHJul-vR-18" value="&lt;div&gt;+print()&lt;/div&gt;&lt;div&gt;&lt;br&gt;&lt;/div&gt;" style="rounded=0;whiteSpace=wrap;html=1;fillColor=#d5e8d4;strokeColor=#82b366;fontStyle=0;gradientColor=#97d077;" parent="Mk2Gps-Qhd8d-5zVS3Zk-13" vertex="1">
          <mxGeometry y="40" width="190" height="80" as="geometry" />
        </mxCell>
        <mxCell id="fj0S0OUntvVnCHJul-vR-23" value="Routes" style="rounded=0;whiteSpace=wrap;html=1;fillStyle=solid;fillColor=#cdeb8b;strokeColor=#36393d;fontStyle=1" parent="Mk2Gps-Qhd8d-5zVS3Zk-13" vertex="1">
          <mxGeometry width="190" height="40" as="geometry" />
        </mxCell>
        <mxCell id="Mk2Gps-Qhd8d-5zVS3Zk-9" value="" style="group" parent="1" connectable="0" vertex="1">
          <mxGeometry x="414" y="915" width="190" height="360" as="geometry" />
        </mxCell>
        <mxCell id="fj0S0OUntvVnCHJul-vR-1" value="Admin" style="rounded=0;whiteSpace=wrap;html=1;fillStyle=solid;fillColor=#cdeb8b;strokeColor=#36393d;fontStyle=1" parent="Mk2Gps-Qhd8d-5zVS3Zk-9" vertex="1">
          <mxGeometry width="190" height="50" as="geometry" />
        </mxCell>
        <mxCell id="fj0S0OUntvVnCHJul-vR-2" value="&lt;div&gt;-username: string&lt;/div&gt;&lt;div&gt;-password: string&lt;/div&gt;&lt;div&gt;&amp;nbsp; &amp;nbsp; - user1:string&lt;/div&gt;&lt;div&gt;- pass1:string&lt;/div&gt;&lt;div&gt;&amp;nbsp; &amp;nbsp; -cnic: string&lt;/div&gt;&lt;div&gt;-name:string&lt;span style=&quot;&quot;&gt;&lt;/span&gt;&lt;/div&gt;&lt;div&gt;&lt;br&gt;&lt;/div&gt;&lt;div&gt;&lt;br&gt;&lt;/div&gt;&lt;div&gt;&lt;br&gt;&lt;/div&gt;&lt;div&gt;&lt;br&gt;&lt;/div&gt;&lt;div&gt;&lt;br&gt;&lt;/div&gt;&lt;div&gt;&lt;br&gt;&lt;/div&gt;&lt;div&gt;&lt;br&gt;&lt;/div&gt;&lt;div&gt;&lt;br&gt;&lt;/div&gt;&lt;div&gt;&lt;br&gt;&lt;/div&gt;&lt;div&gt;+Registration1()&lt;/div&gt;&lt;div&gt;+login()&lt;/div&gt;&lt;div&gt;&lt;br&gt;&lt;/div&gt;" style="rounded=0;whiteSpace=wrap;html=1;fillColor=#d5e8d4;strokeColor=#82b366;gradientColor=#97d077;" parent="Mk2Gps-Qhd8d-5zVS3Zk-9" vertex="1">
          <mxGeometry y="50" width="190" height="310" as="geometry" />
        </mxCell>
        <mxCell id="Mk2Gps-Qhd8d-5zVS3Zk-8" value="" style="endArrow=none;html=1;rounded=0;exitX=0;exitY=0.5;exitDx=0;exitDy=0;entryX=1;entryY=0.5;entryDx=0;entryDy=0;" parent="Mk2Gps-Qhd8d-5zVS3Zk-9" source="fj0S0OUntvVnCHJul-vR-2" target="fj0S0OUntvVnCHJul-vR-2" edge="1">
          <mxGeometry width="50" height="50" relative="1" as="geometry">
            <mxPoint x="360" y="120" as="sourcePoint" />
            <mxPoint x="410" y="70" as="targetPoint" />
          </mxGeometry>
        </mxCell>
        <mxCell id="Mk2Gps-Qhd8d-5zVS3Zk-16" value="" style="group" parent="1" connectable="0" vertex="1">
          <mxGeometry x="1100" y="925" width="190" height="350" as="geometry" />
        </mxCell>
        <mxCell id="fj0S0OUntvVnCHJul-vR-6" value="&lt;div&gt;&amp;nbsp;#i: int&amp;nbsp;&lt;/div&gt;&lt;div&gt;# j: int&lt;/div&gt;&lt;div&gt;#n:int&amp;nbsp;&lt;/div&gt;&lt;div&gt;&amp;nbsp;#m:int&lt;/div&gt;&lt;div&gt;&amp;nbsp;#&lt;span style=&quot;background-color: initial;&quot;&gt;k:int&lt;/span&gt;&lt;/div&gt;&lt;div&gt;&amp;nbsp;#NoOfSeats:int&amp;nbsp;&lt;/div&gt;&lt;div&gt;#choice: int&lt;/div&gt;&lt;div&gt;#xe: int&lt;/div&gt;&lt;div&gt;&amp;nbsp; &amp;nbsp; # loc: string&lt;/div&gt;&lt;div&gt;&lt;br&gt;&lt;/div&gt;&lt;div&gt;&lt;br&gt;&lt;/div&gt;&lt;div&gt;&lt;br&gt;&lt;/div&gt;&lt;div&gt;+booking()&lt;/div&gt;&lt;div&gt;+ldest()&lt;/div&gt;&lt;div&gt;+ldest()&lt;/div&gt;&lt;div&gt;+seats()&lt;br&gt;&lt;/div&gt;&lt;div&gt;+Meals()&lt;br&gt;&lt;/div&gt;&lt;div&gt;+Registration()&lt;/div&gt;&lt;div&gt;+display()&lt;/div&gt;&lt;div&gt;+confirm()&lt;/div&gt;&lt;div&gt;+drive()&lt;/div&gt;&lt;div&gt;&lt;/div&gt;" style="rounded=0;whiteSpace=wrap;html=1;fillColor=#d5e8d4;strokeColor=#82b366;gradientColor=#97d077;" parent="Mk2Gps-Qhd8d-5zVS3Zk-16" vertex="1">
          <mxGeometry y="40" width="190" height="310" as="geometry" />
        </mxCell>
        <mxCell id="fj0S0OUntvVnCHJul-vR-32" value="Booking" style="rounded=0;whiteSpace=wrap;html=1;fillStyle=solid;fillColor=#cdeb8b;strokeColor=#36393d;fontStyle=1" parent="Mk2Gps-Qhd8d-5zVS3Zk-16" vertex="1">
          <mxGeometry width="190" height="40" as="geometry" />
        </mxCell>
        <mxCell id="Mk2Gps-Qhd8d-5zVS3Zk-15" value="" style="endArrow=none;html=1;rounded=0;entryX=1;entryY=0.5;entryDx=0;entryDy=0;exitX=0;exitY=0.5;exitDx=0;exitDy=0;" parent="Mk2Gps-Qhd8d-5zVS3Zk-16" source="fj0S0OUntvVnCHJul-vR-6" target="fj0S0OUntvVnCHJul-vR-6" edge="1">
          <mxGeometry width="50" height="50" relative="1" as="geometry">
            <mxPoint x="-275.5" y="80" as="sourcePoint" />
            <mxPoint x="-225.5" y="30" as="targetPoint" />
          </mxGeometry>
        </mxCell>
        <mxCell id="Mk2Gps-Qhd8d-5zVS3Zk-17" value="" style="group" parent="1" connectable="0" vertex="1">
          <mxGeometry x="770" y="920" width="190" height="350" as="geometry" />
        </mxCell>
        <mxCell id="fj0S0OUntvVnCHJul-vR-10" value="&lt;div&gt;&lt;div&gt;-temp: string&lt;/div&gt;&lt;div&gt;&amp;nbsp;-y: string&amp;nbsp;&lt;/div&gt;&lt;div&gt;-c2:string&lt;/div&gt;&lt;div&gt;&amp;nbsp; &amp;nbsp; -option: int&lt;/div&gt;&lt;/div&gt;&lt;div&gt;&lt;br&gt;&lt;/div&gt;&lt;div&gt;&lt;br&gt;&lt;/div&gt;&lt;div&gt;&lt;br&gt;&lt;/div&gt;&lt;div&gt;+change()&lt;/div&gt;&lt;div&gt;&lt;br&gt;&lt;/div&gt;" style="rounded=0;whiteSpace=wrap;html=1;fillColor=#d5e8d4;strokeColor=#82b366;gradientColor=#97d077;" parent="Mk2Gps-Qhd8d-5zVS3Zk-17" vertex="1">
          <mxGeometry y="40" width="190" height="310" as="geometry" />
        </mxCell>
        <mxCell id="fj0S0OUntvVnCHJul-vR-12" value="Manage" style="rounded=0;whiteSpace=wrap;html=1;fillStyle=solid;fillColor=#cdeb8b;strokeColor=#36393d;fontStyle=1" parent="Mk2Gps-Qhd8d-5zVS3Zk-17" vertex="1">
          <mxGeometry width="190" height="40" as="geometry" />
        </mxCell>
        <mxCell id="Mk2Gps-Qhd8d-5zVS3Zk-11" value="" style="endArrow=none;html=1;rounded=0;exitX=0;exitY=0.5;exitDx=0;exitDy=0;entryX=1;entryY=0.5;entryDx=0;entryDy=0;" parent="Mk2Gps-Qhd8d-5zVS3Zk-17" source="fj0S0OUntvVnCHJul-vR-10" target="fj0S0OUntvVnCHJul-vR-10" edge="1">
          <mxGeometry width="50" height="50" relative="1" as="geometry">
            <mxPoint x="220" y="210" as="sourcePoint" />
            <mxPoint x="270" y="160" as="targetPoint" />
          </mxGeometry>
        </mxCell>
        <mxCell id="Mk2Gps-Qhd8d-5zVS3Zk-20" value="" style="group" parent="1" connectable="0" vertex="1">
          <mxGeometry x="1390" y="500" width="190" height="300" as="geometry" />
        </mxCell>
        <mxCell id="fj0S0OUntvVnCHJul-vR-7" value="&lt;div&gt;&lt;div&gt;&amp;nbsp;-f_name:string&lt;/div&gt;&lt;div&gt;&amp;nbsp;-l_name:string&amp;nbsp;&lt;/div&gt;&lt;div&gt;-p_num:string&lt;/div&gt;&lt;div&gt;&amp;nbsp; &amp;nbsp; -choice:int&lt;/div&gt;&lt;div&gt;&amp;nbsp; &amp;nbsp; -sentence:string&lt;/div&gt;&lt;div&gt;&amp;nbsp;-types:string&lt;/div&gt;&lt;div&gt;&amp;nbsp; &amp;nbsp; - ch:char&lt;/div&gt;&lt;/div&gt;&lt;div&gt;&lt;br&gt;&lt;/div&gt;&lt;div&gt;&lt;br&gt;&lt;/div&gt;&lt;div&gt;&lt;br&gt;&lt;/div&gt;&lt;div&gt;&lt;br&gt;&lt;/div&gt;&lt;div&gt;&lt;br&gt;&lt;/div&gt;&lt;div&gt;&lt;br&gt;&lt;/div&gt;&lt;div&gt;+&amp;nbsp;complain()&lt;/div&gt;&lt;div&gt;+type()&lt;/div&gt;&lt;div&gt;&lt;br&gt;&lt;/div&gt;" style="rounded=0;whiteSpace=wrap;html=1;fillColor=#d5e8d4;strokeColor=#82b366;gradientColor=#97d077;" parent="Mk2Gps-Qhd8d-5zVS3Zk-20" vertex="1">
          <mxGeometry y="40" width="190" height="260" as="geometry" />
        </mxCell>
        <mxCell id="fj0S0OUntvVnCHJul-vR-38" value="Complain" style="rounded=0;whiteSpace=wrap;html=1;fillStyle=solid;fillColor=#cdeb8b;strokeColor=#36393d;fontStyle=1" parent="Mk2Gps-Qhd8d-5zVS3Zk-20" vertex="1">
          <mxGeometry width="190" height="40" as="geometry" />
        </mxCell>
        <mxCell id="Mk2Gps-Qhd8d-5zVS3Zk-19" value="" style="endArrow=none;html=1;rounded=0;entryX=1;entryY=0.5;entryDx=0;entryDy=0;exitX=0;exitY=0.5;exitDx=0;exitDy=0;" parent="Mk2Gps-Qhd8d-5zVS3Zk-20" source="fj0S0OUntvVnCHJul-vR-7" target="fj0S0OUntvVnCHJul-vR-7" edge="1">
          <mxGeometry width="50" height="50" relative="1" as="geometry">
            <mxPoint y="230" as="sourcePoint" />
            <mxPoint x="50" y="180" as="targetPoint" />
          </mxGeometry>
        </mxCell>
        <mxCell id="Eqp5SEI5arH-6JlxtCef-9" value="" style="group" parent="1" connectable="0" vertex="1">
          <mxGeometry x="1380" y="940" width="190" height="220" as="geometry" />
        </mxCell>
        <mxCell id="Eqp5SEI5arH-6JlxtCef-10" value="&lt;div&gt;+Aboutus()&lt;/div&gt;&lt;div&gt;&lt;/div&gt;" style="rounded=0;whiteSpace=wrap;html=1;fillColor=#d5e8d4;strokeColor=#82b366;gradientColor=#97d077;" parent="Eqp5SEI5arH-6JlxtCef-9" vertex="1">
          <mxGeometry y="25.142857142857142" width="190" height="194.85714285714286" as="geometry" />
        </mxCell>
        <mxCell id="Eqp5SEI5arH-6JlxtCef-11" value="About" style="rounded=0;whiteSpace=wrap;html=1;fillStyle=solid;fillColor=#cdeb8b;strokeColor=#36393d;fontStyle=1" parent="Eqp5SEI5arH-6JlxtCef-9" vertex="1">
          <mxGeometry width="190" height="25.142857142857142" as="geometry" />
        </mxCell>
      </root>
    </mxGraphModel>
  </diagram>
</mxfile>
